<svg width="94" height="26" viewBox="0 0 94 26" fill="none" xmlns="http://www.w3.org/2000/svg">
<g clip-path="url(#clip0_264_5263)">
<mask id="mask0_264_5263" style="mask-type:luminance" maskUnits="userSpaceOnUse" x="0" y="0" width="94" height="26">
<path d="M0 1.90735e-06H93.6008V26H0V1.90735e-06Z" fill="white"/>
</mask>
<g mask="url(#mask0_264_5263)">
<path d="M0.669846 15.2584H1.76277C2.15234 15.2584 2.4681 15.5623 2.4681 15.9372V22.1796C2.4681 24.0542 4.04703 25.5739 5.99478 25.5739H8.8154C8.97121 25.5739 9.0975 25.4523 9.0975 25.3023V21.4939C9.0975 21.3439 8.97121 21.2224 8.81535 21.2224H6.65034C6.26077 21.2224 5.94501 20.9184 5.94501 20.5435V5.45624C5.94501 5.08131 6.26077 4.77736 6.65034 4.77736H8.8154C8.97121 4.77736 9.0975 4.65581 9.0975 4.50586V0.697435C9.0975 0.54748 8.97121 0.425879 8.81535 0.425879H5.99478C4.04703 0.425879 2.4681 1.94551 2.4681 3.8201V10.0584C2.4681 10.4333 2.15234 10.7372 1.76277 10.7372H0.669846C0.514037 10.7372 0.387695 10.8587 0.387695 11.0087V14.9868C0.387695 15.1368 0.514037 15.2584 0.669846 15.2584Z" fill="#F9AB00"/>
<path d="M0.669846 15.2584H1.76277C2.15234 15.2584 2.4681 15.5623 2.4681 15.9372V22.1796C2.4681 24.0542 4.04703 25.5739 5.99478 25.5739H8.8154C8.97121 25.5739 9.0975 25.4523 9.0975 25.3023V21.4939C9.0975 21.3439 8.97121 21.2224 8.81535 21.2224H6.65034C6.26077 21.2224 5.94501 20.9184 5.94501 20.5435V5.45624C5.94501 5.08131 6.26077 4.77736 6.65034 4.77736H8.8154C8.97121 4.77736 9.0975 4.65581 9.0975 4.50586V0.697436C9.0975 0.547479 8.97121 0.425879 8.81535 0.425879H5.99478C4.04703 0.425879 2.4681 1.9455 2.4681 3.8201V10.0584C2.4681 10.4333 2.15234 10.7372 1.76277 10.7372H0.669846C0.514037 10.7372 0.387695 10.8587 0.387695 11.0087V14.9868C0.387695 15.1368 0.514037 15.2584 0.669846 15.2584Z" stroke="white" stroke-width="0.472932" stroke-miterlimit="10"/>
<path d="M92.9311 10.7415H91.8382C91.4486 10.7415 91.1329 10.4375 91.1329 10.0627V3.82022C91.1329 1.94563 89.5539 0.426001 87.6062 0.426001H84.7856C84.6298 0.426001 84.5034 0.547602 84.5034 0.697557L84.5035 4.50598C84.5035 4.65594 84.6298 4.77753 84.7856 4.77753H86.9506C87.3401 4.77753 87.656 5.08143 87.656 5.45637V20.5436C87.656 20.9185 87.3402 21.2225 86.9506 21.2225H84.7856C84.6298 21.2225 84.5035 21.344 84.5035 21.494V25.3024C84.5035 25.4524 84.6298 25.574 84.7856 25.574H87.6062C89.5539 25.574 91.1329 24.0544 91.1329 22.1798V15.9415C91.1329 15.5666 91.4486 15.2627 91.8382 15.2627H92.9311C93.0869 15.2627 93.2133 15.1411 93.2133 14.9911V11.013C93.2133 10.863 93.0869 10.7415 92.9311 10.7415Z" fill="#F9AB00"/>
<path d="M92.9311 10.7415H91.8382C91.4486 10.7415 91.1329 10.4375 91.1329 10.0627V3.82022C91.1329 1.94563 89.5539 0.426001 87.6062 0.426001H84.7856C84.6298 0.426001 84.5034 0.547601 84.5034 0.697558L84.5035 4.50598C84.5035 4.65594 84.6298 4.77753 84.7856 4.77753H86.9506C87.3401 4.77753 87.656 5.08143 87.656 5.45637V20.5436C87.656 20.9185 87.3402 21.2225 86.9506 21.2225H84.7856C84.6298 21.2225 84.5035 21.344 84.5035 21.494V25.3024C84.5035 25.4524 84.6298 25.574 84.7856 25.574H87.6062C89.5539 25.574 91.1329 24.0544 91.1329 22.1798V15.9415C91.1329 15.5666 91.4486 15.2627 91.8382 15.2627H92.9311C93.0869 15.2627 93.2133 15.1411 93.2133 14.9911V11.013C93.2133 10.863 93.0869 10.7415 92.9311 10.7415Z" stroke="white" stroke-width="0.472932" stroke-miterlimit="10"/>
<path d="M21.2636 8.81167C20.9421 9.41865 20.4601 9.8883 19.8175 10.2209C19.1746 10.5536 18.3743 10.7198 17.4165 10.7198H15.5794V2.66693H17.4165C18.3743 2.66693 19.1746 2.8332 19.8175 3.16588C20.4601 3.49847 20.9421 3.96541 21.2636 4.56637C21.5848 5.16757 21.7456 5.87661 21.7456 6.69341C21.7456 7.49867 21.5848 8.20492 21.2636 8.81167ZM21.0999 1.22266C20.0995 0.691696 18.9081 0.426071 17.5257 0.426071H13.1238V12.9607H17.5257C18.9081 12.9607 20.0995 12.6981 21.0999 12.1729C22.1004 11.6477 22.8703 10.9124 23.41 9.96707C23.9495 9.02176 24.2194 7.93057 24.2194 6.69341C24.2194 5.45643 23.9495 4.36804 23.41 3.42842C22.8703 2.48913 22.1004 1.75381 21.0999 1.22266Z" fill="white"/>
<path d="M27.8327 7.41113C27.8823 7.24709 27.9444 7.09206 28.0207 6.94722C28.2389 6.53306 28.5391 6.2092 28.9211 5.97559C29.3031 5.74226 29.7243 5.62545 30.1853 5.62545C30.5368 5.62545 30.8492 5.68099 31.122 5.79182C31.3948 5.90279 31.6282 6.04564 31.8223 6.22068C32.0162 6.39577 32.1679 6.58831 32.2771 6.7984C32.3862 7.00849 32.4468 7.2128 32.459 7.41113H27.8327ZM32.6773 4.36501C31.998 3.95659 31.1613 3.75228 30.1671 3.75228C29.2453 3.75228 28.4268 3.97115 27.7115 4.40883C26.9958 4.84641 26.432 5.42717 26.0198 6.15063C25.6074 6.87443 25.4014 7.66224 25.4014 8.51399C25.4014 9.42439 25.6105 10.2357 26.0289 10.9474C26.4473 11.6595 27.0231 12.2196 27.7569 12.6281C28.4905 13.0364 29.3241 13.2408 30.258 13.2408C31.2886 13.2408 32.1557 13.0277 32.8591 12.6017C33.5623 12.1759 34.1324 11.5952 34.569 10.8599L32.6408 9.94952C32.4226 10.3115 32.1193 10.6121 31.7314 10.8511C31.3431 11.0905 30.8642 11.21 30.2944 11.21C29.8092 11.21 29.3696 11.1022 28.9757 10.8862C28.5814 10.6703 28.2691 10.3552 28.0389 9.9408C27.8921 9.67717 27.7926 9.37635 27.7393 9.03926H34.6963C34.7082 8.98093 34.7205 8.88465 34.7327 8.7504C34.7446 8.61633 34.7509 8.4558 34.7509 8.26894C34.7509 7.44039 34.5749 6.68459 34.2233 6.00182C33.8715 5.31909 33.3562 4.77371 32.6773 4.36501Z" fill="white"/>
<path d="M40.0188 9.84451H39.8733L37.5269 4.03236H34.8167L38.7456 12.9606H41.1102L45.0756 4.03236H42.4017L40.0188 9.84451Z" fill="white"/>
<path d="M46.2485 12.9606H48.7041V7.95379H53.9245V5.71294H48.7041V2.66686H54.5066V0.426058H46.2485V12.9606Z" fill="white"/>
<path d="M57.6566 7.41113C57.7062 7.24709 57.7683 7.09206 57.8446 6.94722C58.0629 6.53306 58.363 6.2092 58.745 5.97559C59.127 5.74226 59.5482 5.62545 60.0092 5.62545C60.3608 5.62545 60.6731 5.68099 60.946 5.79182C61.2188 5.90279 61.4522 6.04564 61.6463 6.22068C61.8401 6.39577 61.9918 6.58831 62.101 6.7984C62.2101 7.00849 62.2707 7.2128 62.2829 7.41113H57.6566ZM62.5012 4.36501C61.8219 3.95659 60.9852 3.75228 59.991 3.75228C59.0693 3.75228 58.2507 3.97115 57.5354 4.40883C56.8197 4.84641 56.2559 5.42717 55.8437 6.15063C55.4314 6.87443 55.2253 7.66224 55.2253 8.51399C55.2253 9.42439 55.4345 10.2357 55.8528 10.9474C56.2712 11.6595 56.847 12.2196 57.5808 12.6281C58.3144 13.0364 59.1481 13.2408 60.0819 13.2408C61.1125 13.2408 61.9796 13.0277 62.6831 12.6017C63.3862 12.1759 63.9563 11.5952 64.3929 10.8599L62.4648 9.94952C62.2465 10.3115 61.9432 10.6121 61.5553 10.8511C61.1671 11.0905 60.6881 11.21 60.1183 11.21C59.6332 11.21 59.1935 11.1022 58.7996 10.8862C58.4054 10.6703 58.0931 10.3552 57.8628 9.9408C57.7161 9.67717 57.6166 9.37635 57.5633 9.03926H64.5202C64.5321 8.98093 64.5444 8.88465 64.5566 8.7504C64.5685 8.61633 64.5748 8.4558 64.5748 8.26894C64.5748 7.44039 64.3988 6.68459 64.0472 6.00182C63.6955 5.31909 63.1802 4.77371 62.5012 4.36501Z" fill="white"/>
<path d="M70.7174 7.63872L69.3531 7.32358C69.0135 7.24206 68.7225 7.11956 68.4801 6.95595C68.2373 6.79262 68.1162 6.60008 68.1162 6.37822C68.1162 6.16818 68.2373 5.98735 68.4801 5.83555C68.7225 5.68402 69.0499 5.60796 69.4623 5.60796C69.8139 5.60796 70.1444 5.678 70.4537 5.81805C70.7629 5.95809 71.0144 6.20318 71.2085 6.55332L73.2457 5.6955C73.0275 5.25208 72.7364 4.88748 72.3726 4.60137C72.0088 4.3155 71.5782 4.10242 71.0812 3.96233C70.5838 3.82233 70.0261 3.75228 69.4077 3.75228C68.7407 3.75228 68.1314 3.86335 67.5797 4.08492C67.0277 4.30677 66.5912 4.61607 66.27 5.01273C65.9486 5.40963 65.788 5.87657 65.788 6.41327C65.788 6.89197 65.9122 7.31486 66.1608 7.68249C66.4093 8.05008 66.7338 8.35374 67.134 8.59276C67.5342 8.83211 67.9585 8.99847 68.4073 9.09171L69.4987 9.3193C69.7534 9.36606 70.0018 9.42733 70.2444 9.50317C70.4869 9.57919 70.6901 9.68418 70.8538 9.81825C71.0175 9.95256 71.0994 10.1363 71.0994 10.3697C71.0994 10.6966 70.9416 10.9212 70.6264 11.0437C70.3109 11.1663 69.9594 11.2275 69.5714 11.2275C69.0985 11.2275 68.6861 11.1197 68.3345 10.9037C67.9827 10.6878 67.7038 10.3697 67.4978 9.94953L65.3696 10.8424C65.5393 11.2743 65.7999 11.6712 66.1518 12.0328C66.5034 12.3947 66.9612 12.6866 67.5251 12.9081C68.089 13.1297 68.7711 13.2408 69.5714 13.2408C70.299 13.2408 70.9598 13.1209 71.5541 12.8819C72.1481 12.6428 72.621 12.3042 72.9729 11.8665C73.3244 11.4288 73.5004 10.9185 73.5004 10.3347C73.5004 9.68124 73.2668 9.12102 72.8001 8.65408C72.3331 8.18742 71.6388 7.84881 70.7174 7.63872Z" fill="white"/>
<path d="M79.9185 10.8686C79.7486 10.9212 79.5667 10.9474 79.3729 10.9474C78.9605 10.9474 78.6634 10.8453 78.4816 10.641C78.2996 10.437 78.2087 10.1188 78.2087 9.68689V5.99309H80.4824V4.03237H78.2087V1.51148H75.8259V4.03237H74.207V5.99309H75.8259V10.1071C75.8259 11.041 76.0988 11.7732 76.6444 12.3042C77.1901 12.8354 77.9419 13.1006 78.8999 13.1006C79.191 13.1006 79.4729 13.0744 79.7458 13.0219C80.0186 12.9694 80.2883 12.8966 80.5552 12.8031V10.5623C80.3005 10.7141 80.0882 10.8161 79.9185 10.8686Z" fill="white"/>
<path d="M17.895 25.574H75.6129C78.2703 25.574 80.4247 23.5006 80.4247 20.943C80.4247 18.3853 78.2703 16.3119 75.6129 16.3119H17.895C15.2376 16.3119 13.0833 18.3853 13.0833 20.943C13.0833 23.5006 15.2376 25.574 17.895 25.574Z" fill="#1E1E1E"/>
<path d="M38.6334 18.7703H39.1598V22.7496H41.1275V23.2572H38.6334V18.7703ZM42.7994 23.3575C42.5654 23.3575 42.3565 23.3115 42.1727 23.2196C41.9889 23.1277 41.8469 23.0024 41.7466 22.8436C41.6463 22.6807 41.5962 22.4969 41.5962 22.2921C41.5962 21.9537 41.7236 21.6906 41.9785 21.5026C42.2333 21.3104 42.555 21.2143 42.9435 21.2143C43.1357 21.2143 43.3132 21.2352 43.4762 21.277C43.6433 21.3187 43.7707 21.3668 43.8584 21.4211V21.2268C43.8584 20.9887 43.7749 20.7986 43.6078 20.6566C43.4407 20.5103 43.2297 20.4372 42.9748 20.4372C42.7952 20.4372 42.6302 20.4769 42.4798 20.5563C42.3294 20.6315 42.2103 20.738 42.1226 20.8759L41.7215 20.5751C41.8469 20.3829 42.0181 20.2325 42.2354 20.1239C42.4568 20.0153 42.7012 19.961 42.9686 19.961C43.4031 19.961 43.7435 20.0759 43.99 20.3056C44.2407 20.5312 44.366 20.8404 44.366 21.2331V23.2572H43.8584V22.7997H43.8334C43.7415 22.9543 43.6036 23.0859 43.4198 23.1945C43.236 23.3032 43.0292 23.3575 42.7994 23.3575ZM42.8495 22.8875C43.0292 22.8875 43.1963 22.8415 43.3508 22.7496C43.5054 22.6577 43.6287 22.5345 43.7206 22.3799C43.8125 22.2253 43.8584 22.0561 43.8584 21.8723C43.7582 21.8054 43.6349 21.7511 43.4887 21.7094C43.3425 21.6676 43.1879 21.6467 43.025 21.6467C42.7325 21.6467 42.5111 21.7073 42.3607 21.8284C42.2145 21.9496 42.1414 22.1062 42.1414 22.2984C42.1414 22.4739 42.2082 22.6159 42.3419 22.7245C42.4756 22.8332 42.6448 22.8875 42.8495 22.8875ZM46.5428 24.7111C46.1668 24.7111 45.8556 24.6233 45.6091 24.4479C45.3668 24.2724 45.2039 24.0614 45.1203 23.8149L45.6029 23.6081C45.6739 23.792 45.7908 23.9403 45.9538 24.0531C46.1209 24.17 46.3172 24.2285 46.5428 24.2285C46.8729 24.2285 47.1277 24.1324 47.3074 23.9403C47.4912 23.7481 47.5831 23.4765 47.5831 23.1256V22.7684H47.558C47.4536 22.9313 47.3053 23.065 47.1131 23.1695C46.9251 23.2697 46.71 23.3199 46.4676 23.3199C46.1919 23.3199 45.9392 23.2488 45.7094 23.1068C45.4838 22.9648 45.3041 22.7663 45.1705 22.5115C45.0368 22.2566 44.9699 21.9663 44.9699 21.6404C44.9699 21.3187 45.0368 21.0305 45.1705 20.7756C45.3041 20.5166 45.4838 20.3161 45.7094 20.174C45.9392 20.032 46.1919 19.961 46.4676 19.961C46.71 19.961 46.9251 20.0132 47.1131 20.1176C47.3053 20.2179 47.4536 20.3516 47.558 20.5187H47.5831V20.0612H48.0907V23.1319C48.0907 23.6457 47.9486 24.0363 47.6646 24.3037C47.3805 24.5753 47.0066 24.7111 46.5428 24.7111ZM46.5428 22.8373C46.735 22.8373 46.9084 22.7893 47.063 22.6932C47.2217 22.5971 47.3471 22.4593 47.439 22.2796C47.5351 22.1 47.5831 21.8869 47.5831 21.6404C47.5831 21.3898 47.5351 21.1746 47.439 20.995C47.3471 20.8153 47.2217 20.6795 47.063 20.5876C46.9084 20.4915 46.735 20.4435 46.5428 20.4435C46.3507 20.4435 46.1752 20.4915 46.0164 20.5876C45.8577 20.6837 45.7303 20.8216 45.6342 21.0012C45.5423 21.1809 45.4963 21.3939 45.4963 21.6404C45.4963 21.8869 45.5423 22.1021 45.6342 22.2859C45.7303 22.4655 45.8577 22.6034 46.0164 22.6995C46.1752 22.7914 46.3507 22.8373 46.5428 22.8373ZM50.383 23.3575C50.0697 23.3575 49.7877 23.2823 49.537 23.1319C49.2863 22.9815 49.09 22.7768 48.9479 22.5177C48.8101 22.2587 48.7411 21.9725 48.7411 21.6592C48.7411 21.3459 48.8101 21.0597 48.9479 20.8007C49.09 20.5417 49.2863 20.337 49.537 20.1866C49.7877 20.0362 50.0697 19.961 50.383 19.961C50.6963 19.961 50.9783 20.0362 51.229 20.1866C51.4797 20.337 51.6739 20.5417 51.8118 20.8007C51.9538 21.0597 52.0248 21.3459 52.0248 21.6592C52.0248 21.9725 51.9538 22.2587 51.8118 22.5177C51.6739 22.7768 51.4797 22.9815 51.229 23.1319C50.9783 23.2823 50.6963 23.3575 50.383 23.3575ZM50.383 22.8749C50.5794 22.8749 50.7611 22.8269 50.9282 22.7308C51.0995 22.6305 51.2353 22.4885 51.3355 22.3047C51.44 22.1209 51.4922 21.9057 51.4922 21.6592C51.4922 21.4127 51.44 21.1976 51.3355 21.0138C51.2353 20.8299 51.0995 20.69 50.9282 20.5939C50.7611 20.4936 50.5794 20.4435 50.383 20.4435C50.1866 20.4435 50.0028 20.4936 49.8315 20.5939C49.6602 20.69 49.5224 20.8299 49.4179 21.0138C49.3177 21.1976 49.2675 21.4127 49.2675 21.6592C49.2675 21.9057 49.3177 22.1209 49.4179 22.3047C49.5224 22.4885 49.6602 22.6305 49.8315 22.7308C50.0028 22.8269 50.1866 22.8749 50.383 22.8749ZM53.7909 23.3575C53.4483 23.3575 53.1622 23.2781 52.9324 23.1193C52.7026 22.9564 52.5397 22.7496 52.4436 22.4989L52.9198 22.2859C52.9992 22.4781 53.1162 22.6264 53.2708 22.7308C53.4295 22.8353 53.6029 22.8875 53.7909 22.8875C53.9914 22.8875 54.1627 22.8478 54.3048 22.7684C54.4468 22.6849 54.5178 22.5679 54.5178 22.4175C54.5178 22.2838 54.4614 22.1773 54.3486 22.0979C54.2358 22.0143 54.0583 21.9433 53.816 21.8848L53.4274 21.7846C53.1726 21.7219 52.9637 21.6154 52.8008 21.465C52.6378 21.3146 52.5564 21.1203 52.5564 20.8822C52.5564 20.6983 52.6107 20.5375 52.7193 20.3996C52.8321 20.2576 52.9804 20.149 53.1642 20.0738C53.3481 19.9986 53.5465 19.961 53.7596 19.961C54.0395 19.961 54.2881 20.0215 54.5053 20.1427C54.7267 20.2639 54.8834 20.4331 54.9753 20.6503L54.5116 20.8634C54.3695 20.5793 54.1168 20.4372 53.7533 20.4372C53.5778 20.4372 53.4233 20.479 53.2896 20.5626C53.1601 20.6419 53.0953 20.7443 53.0953 20.8696C53.0953 20.9866 53.1413 21.0827 53.2332 21.1579C53.3251 21.2289 53.463 21.2874 53.6468 21.3334L54.1105 21.4524C54.4238 21.5318 54.6599 21.6509 54.8186 21.8096C54.9774 21.9642 55.0568 22.1543 55.0568 22.3799C55.0568 22.5762 55.0004 22.7496 54.8876 22.9C54.7748 23.0462 54.6223 23.159 54.4301 23.2384C54.2379 23.3178 54.0249 23.3575 53.7909 23.3575Z" fill="white"/>
<path d="M17.895 25.574H75.6129C78.2703 25.574 80.4247 23.5006 80.4247 20.943C80.4247 18.3853 78.2703 16.3119 75.6129 16.3119H17.895C15.2376 16.3119 13.0833 18.3853 13.0833 20.943C13.0833 23.5006 15.2376 25.574 17.895 25.574Z" stroke="white" stroke-width="0.472932" stroke-miterlimit="10" stroke-linejoin="round"/>
</g>
</g>
<defs>
<clipPath id="clip0_264_5263">
<rect width="93.6009" height="26" fill="white"/>
</clipPath>
</defs>
</svg>
