<svg width="180" height="50" viewBox="0 0 180 50" fill="none" xmlns="http://www.w3.org/2000/svg">
<g clip-path="url(#clip0_264_4684)">
<mask id="mask0_264_4684" style="mask-type:luminance" maskUnits="userSpaceOnUse" x="0" y="0" width="181" height="50">
<path d="M0 6.48499e-05H180.001V50.0001H0V6.48499e-05Z" fill="white"/>
</mask>
<g mask="url(#mask0_264_4684)">
<path d="M1.2882 29.3432H3.38998C4.13916 29.3432 4.74638 29.9278 4.74638 30.6487V42.6534C4.74638 46.2584 7.78278 49.1807 11.5285 49.1807H16.9527C17.2524 49.1807 17.4952 48.9469 17.4952 48.6585V41.3346C17.4952 41.0462 17.2524 40.8125 16.9526 40.8125H12.7892C12.04 40.8125 11.4328 40.228 11.4328 39.507V10.493C11.4328 9.77198 12.04 9.18748 12.7892 9.18748H16.9527C17.2524 9.18748 17.4952 8.95373 17.4952 8.66535V1.34146C17.4952 1.05309 17.2524 0.819241 16.9526 0.819241H11.5285C7.78278 0.819241 4.74638 3.7416 4.74638 7.34659V19.3432C4.74638 20.0642 4.13916 20.6487 3.38998 20.6487H1.2882C0.988571 20.6487 0.745605 20.8824 0.745605 21.1709V28.821C0.745605 29.1095 0.988571 29.3432 1.2882 29.3432Z" fill="#F9AB00"/>
<path d="M1.2882 29.3432H3.38998C4.13916 29.3432 4.74638 29.9278 4.74638 30.6487V42.6534C4.74638 46.2584 7.78278 49.1807 11.5285 49.1807H16.9527C17.2524 49.1807 17.4952 48.9469 17.4952 48.6585V41.3346C17.4952 41.0462 17.2524 40.8125 16.9526 40.8125H12.7892C12.04 40.8125 11.4328 40.228 11.4328 39.507V10.493C11.4328 9.77198 12.04 9.18748 12.7892 9.18748H16.9527C17.2524 9.18748 17.4952 8.95373 17.4952 8.66535V1.34146C17.4952 1.05309 17.2524 0.819241 16.9526 0.819241H11.5285C7.78278 0.819241 4.74638 3.7416 4.74638 7.34659V19.3432C4.74638 20.0642 4.13916 20.6487 3.38998 20.6487H1.2882C0.988571 20.6487 0.745605 20.8824 0.745605 21.1709V28.821C0.745605 29.1095 0.988571 29.3432 1.2882 29.3432Z" stroke="white" stroke-width="0.905623" stroke-miterlimit="10"/>
<path d="M178.713 20.6568H176.612C175.863 20.6568 175.255 20.0723 175.255 19.3513V7.34665C175.255 3.74166 172.219 0.819302 168.473 0.819302H163.049C162.749 0.819302 162.506 1.05315 162.506 1.34153L162.506 8.66541C162.506 8.95379 162.749 9.18763 163.049 9.18763H167.213C167.962 9.18763 168.569 9.77205 168.569 10.4931V39.507C168.569 40.228 167.962 40.8126 167.213 40.8126H163.049C162.749 40.8126 162.506 41.0463 162.506 41.3347V48.6586C162.506 48.947 162.749 49.1808 163.049 49.1808H168.473C172.219 49.1808 175.255 46.2584 175.255 42.6534V30.6568C175.255 29.9358 175.863 29.3513 176.612 29.3513H178.713C179.013 29.3513 179.256 29.1176 179.256 28.8291V21.179C179.256 20.8905 179.013 20.6568 178.713 20.6568Z" fill="#F9AB00"/>
<path d="M178.713 20.6568H176.612C175.863 20.6568 175.255 20.0723 175.255 19.3513V7.34665C175.255 3.74166 172.219 0.819302 168.473 0.819302H163.049C162.749 0.819302 162.506 1.05315 162.506 1.34153L162.506 8.66541C162.506 8.95379 162.749 9.18763 163.049 9.18763H167.213C167.962 9.18763 168.569 9.77205 168.569 10.4931V39.507C168.569 40.228 167.962 40.8126 167.213 40.8126H163.049C162.749 40.8126 162.506 41.0463 162.506 41.3347V48.6586C162.506 48.947 162.749 49.1808 163.049 49.1808H168.473C172.219 49.1808 175.255 46.2584 175.255 42.6534V30.6568C175.255 29.9358 175.863 29.3513 176.612 29.3513H178.713C179.013 29.3513 179.256 29.1176 179.256 28.8291V21.179C179.256 20.8905 179.013 20.6568 178.713 20.6568Z" stroke="white" stroke-width="0.905623" stroke-miterlimit="10"/>
<path d="M40.8913 16.9455C40.2731 18.1128 39.3462 19.016 38.1104 19.6556C36.8741 20.2954 35.335 20.6151 33.493 20.6151H29.9601V5.12873H33.493C35.335 5.12873 36.8741 5.44848 38.1104 6.08825C39.3462 6.72785 40.2731 7.62581 40.8913 8.78151C41.509 9.93766 41.8183 11.3012 41.8183 12.872C41.8183 14.4206 41.509 15.7787 40.8913 16.9455ZM40.5765 2.3513C38.6526 1.33021 36.3614 0.819395 33.703 0.819395H25.2378V24.9244H33.703C36.3614 24.9244 38.6526 24.4194 40.5765 23.4094C42.5005 22.3994 43.9811 20.9855 45.019 19.1675C46.0564 17.3496 46.5755 15.2511 46.5755 12.872C46.5755 10.4932 46.0564 8.40011 45.019 6.59314C43.9811 4.78682 42.5005 3.37275 40.5765 2.3513Z" fill="white"/>
<path d="M53.5242 14.2522C53.6196 13.9367 53.7391 13.6386 53.8858 13.3601C54.3055 12.5636 54.8827 11.9408 55.6173 11.4915C56.3519 11.0428 57.1619 10.8182 58.0484 10.8182C58.7245 10.8182 59.3252 10.925 59.8499 11.1381C60.3745 11.3516 60.8234 11.6263 61.1966 11.9629C61.5694 12.2996 61.8612 12.6699 62.0712 13.0739C62.281 13.4779 62.3974 13.8708 62.4209 14.2522H53.5242ZM62.8407 8.39427C61.5345 7.60885 59.9253 7.21596 58.0135 7.21596C56.2409 7.21596 54.6668 7.63685 53.2912 8.47854C51.9149 9.32005 50.8305 10.4369 50.038 11.8282C49.2449 13.2201 48.8486 14.7351 48.8486 16.3731C48.8486 18.1239 49.2509 19.684 50.0554 21.0528C50.86 22.4221 51.9674 23.4993 53.3786 24.2848C54.7892 25.07 56.3924 25.4631 58.1883 25.4631C60.1702 25.4631 61.8377 25.0532 63.1905 24.2341C64.5427 23.4152 65.6391 22.2984 66.4787 20.8845L62.7707 19.1337C62.351 19.8298 61.7678 20.4079 61.0217 20.8675C60.2751 21.3278 59.3541 21.5578 58.2582 21.5578C57.3253 21.5578 56.4798 21.3505 55.7223 20.9349C54.9642 20.5199 54.3635 19.914 53.9208 19.1169C53.6386 18.61 53.4473 18.0315 53.3447 17.3832H66.7234C66.7464 17.271 66.77 17.0859 66.7935 16.8277C66.8163 16.5699 66.8284 16.2612 66.8284 15.9018C66.8284 14.3085 66.49 12.855 65.8139 11.542C65.1374 10.2291 64.1464 9.18024 62.8407 8.39427Z" fill="white"/>
<path d="M76.9588 18.9318H76.679L72.1667 7.75462H66.9546L74.5103 24.9244H79.0576L86.6833 7.75462H81.5412L76.9588 18.9318Z" fill="white"/>
<path d="M88.939 24.9244H93.6612V15.2958H103.701V10.9865H93.6612V5.12867H104.82V0.819427H88.939V24.9244Z" fill="white"/>
<path d="M110.878 14.2522C110.973 13.9367 111.093 13.6386 111.239 13.3601C111.659 12.5636 112.236 11.9408 112.971 11.4915C113.705 11.0428 114.515 10.8182 115.402 10.8182C116.078 10.8182 116.679 10.925 117.203 11.1381C117.728 11.3516 118.177 11.6263 118.55 11.9629C118.923 12.2996 119.215 12.6699 119.425 13.0739C119.634 13.4779 119.751 13.8708 119.774 14.2522H110.878ZM120.194 8.39427C118.888 7.60885 117.279 7.21596 115.367 7.21596C113.594 7.21596 112.02 7.63685 110.645 8.47854C109.268 9.32005 108.184 10.4369 107.391 11.8282C106.598 13.2201 106.202 14.7351 106.202 16.3731C106.202 18.1239 106.604 19.684 107.409 21.0528C108.213 22.4221 109.321 23.4993 110.732 24.2848C112.143 25.07 113.746 25.4631 115.542 25.4631C117.524 25.4631 119.191 25.0532 120.544 24.2341C121.896 23.4152 122.993 22.2984 123.832 20.8845L120.124 19.1337C119.704 19.8298 119.121 20.4079 118.375 20.8675C117.629 21.3278 116.708 21.5578 115.612 21.5578C114.679 21.5578 113.833 21.3505 113.076 20.9349C112.318 20.5199 111.717 19.914 111.274 19.1169C110.992 18.61 110.801 18.0315 110.698 17.3832H124.077C124.1 17.271 124.123 17.0859 124.147 16.8277C124.17 16.5699 124.182 16.2612 124.182 15.9018C124.182 14.3085 123.843 12.855 123.167 11.542C122.491 10.2291 121.5 9.18024 120.194 8.39427Z" fill="white"/>
<path d="M135.995 14.6899L133.371 14.0839C132.718 13.9271 132.158 13.6916 131.692 13.3769C131.225 13.0628 130.992 12.6925 130.992 12.2659C130.992 11.862 131.225 11.5142 131.692 11.2223C132.158 10.9309 132.788 10.7846 133.581 10.7846C134.257 10.7846 134.893 10.9193 135.487 11.1886C136.082 11.458 136.566 11.9293 136.939 12.6026L140.857 10.953C140.437 10.1002 139.877 9.3991 139.178 8.84888C138.478 8.29912 137.65 7.88936 136.694 7.61995C135.738 7.35072 134.665 7.21602 133.476 7.21602C132.193 7.21602 131.021 7.42961 129.961 7.8557C128.899 8.28234 128.06 8.87715 127.442 9.63996C126.824 10.4032 126.515 11.3012 126.515 12.3333C126.515 13.2539 126.754 14.0671 127.232 14.7741C127.71 15.481 128.334 16.065 129.104 16.5246C129.873 16.9849 130.689 17.3048 131.552 17.4841L133.651 17.9218C134.141 18.0117 134.618 18.1296 135.085 18.2754C135.551 18.4216 135.942 18.6235 136.257 18.8813C136.572 19.1396 136.729 19.493 136.729 19.9418C136.729 20.5705 136.426 21.0023 135.82 21.238C135.213 21.4737 134.537 21.5915 133.791 21.5915C132.881 21.5915 132.088 21.3842 131.412 20.9687C130.736 20.5536 130.199 19.9418 129.803 19.1338L125.71 20.8508C126.037 21.6815 126.538 22.4447 127.215 23.1402C127.891 23.836 128.771 24.3974 129.856 24.8234C130.94 25.2495 132.252 25.4631 133.791 25.4631C135.19 25.4631 136.461 25.2327 137.604 24.7729C138.746 24.3132 139.655 23.6619 140.332 22.8203C141.008 21.9786 141.346 20.9971 141.346 19.8744C141.346 18.6179 140.897 17.5405 140 16.6425C139.102 15.7451 137.767 15.094 135.995 14.6899Z" fill="white"/>
<path d="M153.689 20.9013C153.362 21.0023 153.013 21.0528 152.64 21.0528C151.847 21.0528 151.276 20.8565 150.926 20.4636C150.576 20.0713 150.401 19.4594 150.401 18.6287V11.5253H154.774V7.75468H150.401V2.9068H145.819V7.75468H142.706V11.5253H145.819V19.4368C145.819 21.2327 146.344 22.641 147.393 23.6619C148.442 24.6835 149.888 25.1937 151.73 25.1937C152.29 25.1937 152.832 25.1432 153.357 25.0422C153.882 24.9412 154.4 24.8013 154.914 24.6215V20.3121C154.424 20.6041 154.015 20.8002 153.689 20.9013Z" fill="white"/>
<path d="M34.4131 49.1809H145.409C150.519 49.1809 154.662 45.1936 154.662 40.275C154.662 35.3565 150.519 31.3692 145.409 31.3692H34.4131C29.3026 31.3692 25.1597 35.3565 25.1597 40.275C25.1597 45.1936 29.3026 49.1809 34.4131 49.1809Z" fill="#1E1E1E"/>
<path d="M73.979 35.4541H74.987V43.0741H78.755V44.0461H73.979V35.4541ZM81.9565 44.2381C81.5085 44.2381 81.1085 44.1501 80.7565 43.9741C80.4045 43.7981 80.1325 43.5581 79.9405 43.2541C79.7485 42.9421 79.6525 42.5901 79.6525 42.1981C79.6525 41.5501 79.8965 41.0461 80.3845 40.6861C80.8725 40.3181 81.4885 40.1341 82.2325 40.1341C82.6005 40.1341 82.9405 40.1741 83.2525 40.2541C83.5725 40.3341 83.8165 40.4261 83.9845 40.5301V40.1581C83.9845 39.7021 83.8245 39.3381 83.5045 39.0661C83.1845 38.7861 82.7805 38.6461 82.2925 38.6461C81.9485 38.6461 81.6325 38.7221 81.3445 38.8741C81.0565 39.0181 80.8285 39.2221 80.6605 39.4861L79.8925 38.9101C80.1325 38.5421 80.4605 38.2541 80.8765 38.0461C81.3005 37.8381 81.7685 37.7341 82.2805 37.7341C83.1125 37.7341 83.7645 37.9541 84.2365 38.3941C84.7165 38.8261 84.9565 39.4181 84.9565 40.1701V44.0461H83.9845V43.1701H83.9365C83.7605 43.4661 83.4965 43.7181 83.1445 43.9261C82.7925 44.1341 82.3965 44.2381 81.9565 44.2381ZM82.0525 43.3381C82.3965 43.3381 82.7165 43.2501 83.0125 43.0741C83.3085 42.8981 83.5445 42.6621 83.7205 42.3661C83.8965 42.0701 83.9845 41.7461 83.9845 41.3941C83.7925 41.2661 83.5565 41.1621 83.2765 41.0821C82.9965 41.0021 82.7005 40.9621 82.3885 40.9621C81.8285 40.9621 81.4045 41.0781 81.1165 41.3101C80.8365 41.5421 80.6965 41.8421 80.6965 42.2101C80.6965 42.5461 80.8245 42.8181 81.0805 43.0261C81.3365 43.2341 81.6605 43.3381 82.0525 43.3381ZM89.1249 46.8301C88.4049 46.8301 87.8089 46.6621 87.3369 46.3261C86.8729 45.9901 86.5609 45.5861 86.4009 45.1141L87.3249 44.7181C87.4609 45.0701 87.6849 45.3541 87.9969 45.5701C88.3169 45.7941 88.6929 45.9061 89.1249 45.9061C89.7569 45.9061 90.2449 45.7221 90.5889 45.3541C90.9409 44.9861 91.1169 44.4661 91.1169 43.7941V43.1101H91.0689C90.8689 43.4221 90.5849 43.6781 90.2169 43.8781C89.8569 44.0701 89.4449 44.1661 88.9809 44.1661C88.4529 44.1661 87.9689 44.0301 87.5289 43.7581C87.0969 43.4861 86.7529 43.1061 86.4969 42.6181C86.2409 42.1301 86.1129 41.5741 86.1129 40.9501C86.1129 40.3341 86.2409 39.7821 86.4969 39.2941C86.7529 38.7981 87.0969 38.4141 87.5289 38.1421C87.9689 37.8701 88.4529 37.7341 88.9809 37.7341C89.4449 37.7341 89.8569 37.8341 90.2169 38.0341C90.5849 38.2261 90.8689 38.4821 91.0689 38.8021H91.1169V37.9261H92.0889V43.8061C92.0889 44.7901 91.8169 45.5381 91.2729 46.0501C90.7289 46.5701 90.0129 46.8301 89.1249 46.8301ZM89.1249 43.2421C89.4929 43.2421 89.8249 43.1501 90.1209 42.9661C90.4249 42.7821 90.6649 42.5181 90.8409 42.1741C91.0249 41.8301 91.1169 41.4221 91.1169 40.9501C91.1169 40.4701 91.0249 40.0581 90.8409 39.7141C90.6649 39.3701 90.4249 39.1101 90.1209 38.9341C89.8249 38.7501 89.4929 38.6581 89.1249 38.6581C88.7569 38.6581 88.4209 38.7501 88.1169 38.9341C87.8129 39.1181 87.5689 39.3821 87.3849 39.7261C87.2089 40.0701 87.1209 40.4781 87.1209 40.9501C87.1209 41.4221 87.2089 41.8341 87.3849 42.1861C87.5689 42.5301 87.8129 42.7941 88.1169 42.9781C88.4209 43.1541 88.7569 43.2421 89.1249 43.2421ZM96.4785 44.2381C95.8785 44.2381 95.3385 44.0941 94.8585 43.8061C94.3785 43.5181 94.0025 43.1261 93.7305 42.6301C93.4665 42.1341 93.3345 41.5861 93.3345 40.9861C93.3345 40.3861 93.4665 39.8381 93.7305 39.3421C94.0025 38.8461 94.3785 38.4541 94.8585 38.1661C95.3385 37.8781 95.8785 37.7341 96.4785 37.7341C97.0785 37.7341 97.6185 37.8781 98.0985 38.1661C98.5785 38.4541 98.9505 38.8461 99.2145 39.3421C99.4865 39.8381 99.6225 40.3861 99.6225 40.9861C99.6225 41.5861 99.4865 42.1341 99.2145 42.6301C98.9505 43.1261 98.5785 43.5181 98.0985 43.8061C97.6185 44.0941 97.0785 44.2381 96.4785 44.2381ZM96.4785 43.3141C96.8545 43.3141 97.2025 43.2221 97.5225 43.0381C97.8505 42.8461 98.1105 42.5741 98.3025 42.2221C98.5025 41.8701 98.6025 41.4581 98.6025 40.9861C98.6025 40.5141 98.5025 40.1021 98.3025 39.7501C98.1105 39.3981 97.8505 39.1301 97.5225 38.9461C97.2025 38.7541 96.8545 38.6581 96.4785 38.6581C96.1025 38.6581 95.7505 38.7541 95.4225 38.9461C95.0945 39.1301 94.8305 39.3981 94.6305 39.7501C94.4385 40.1021 94.3425 40.5141 94.3425 40.9861C94.3425 41.4581 94.4385 41.8701 94.6305 42.2221C94.8305 42.5741 95.0945 42.8461 95.4225 43.0381C95.7505 43.2221 96.1025 43.3141 96.4785 43.3141ZM103.004 44.2381C102.348 44.2381 101.8 44.0861 101.36 43.7821C100.92 43.4701 100.608 43.0741 100.424 42.5941L101.336 42.1861C101.488 42.5541 101.712 42.8381 102.008 43.0381C102.312 43.2381 102.644 43.3381 103.004 43.3381C103.388 43.3381 103.716 43.2621 103.988 43.1101C104.26 42.9501 104.396 42.7261 104.396 42.4381C104.396 42.1821 104.288 41.9781 104.072 41.8261C103.856 41.6661 103.516 41.5301 103.052 41.4181L102.308 41.2261C101.82 41.1061 101.42 40.9021 101.108 40.6141C100.796 40.3261 100.64 39.9541 100.64 39.4981C100.64 39.1461 100.744 38.8381 100.952 38.5741C101.168 38.3021 101.452 38.0941 101.804 37.9501C102.156 37.8061 102.536 37.7341 102.944 37.7341C103.48 37.7341 103.956 37.8501 104.372 38.0821C104.796 38.3141 105.096 38.6381 105.272 39.0541L104.384 39.4621C104.112 38.9181 103.628 38.6461 102.932 38.6461C102.596 38.6461 102.3 38.7261 102.044 38.8861C101.796 39.0381 101.672 39.2341 101.672 39.4741C101.672 39.6981 101.76 39.8821 101.936 40.0261C102.112 40.1621 102.376 40.2741 102.728 40.3621L103.616 40.5901C104.216 40.7421 104.668 40.9701 104.972 41.2741C105.276 41.5701 105.428 41.9341 105.428 42.3661C105.428 42.7421 105.32 43.0741 105.104 43.3621C104.888 43.6421 104.596 43.8581 104.228 44.0101C103.86 44.1621 103.452 44.2381 103.004 44.2381Z" fill="white"/>
<path d="M34.4131 49.1809H145.409C150.519 49.1809 154.662 45.1936 154.662 40.275C154.662 35.3565 150.519 31.3692 145.409 31.3692H34.4131C29.3026 31.3692 25.1597 35.3565 25.1597 40.275C25.1597 45.1936 29.3026 49.1809 34.4131 49.1809Z" stroke="white" stroke-width="0.905623" stroke-miterlimit="10" stroke-linejoin="round"/>
</g>
</g>
<defs>
<clipPath id="clip0_264_4684">
<rect width="180.002" height="50" fill="white"/>
</clipPath>
</defs>
</svg>
