<svg width="16" height="16" viewBox="0 0 16 16" fill="none" xmlns="http://www.w3.org/2000/svg">
<path d="M6.90381 9.5V5.23438H7.9585C8.14209 5.23438 8.31494 5.25586 8.47705 5.29883C8.63916 5.33984 8.78662 5.39746 8.91943 5.47168C9.06396 5.54785 9.19189 5.64355 9.30322 5.75879C9.4165 5.87402 9.51123 6.00293 9.5874 6.14551C9.66553 6.29395 9.72607 6.45703 9.76904 6.63477C9.81201 6.8125 9.8335 7.00195 9.8335 7.20312V7.53711C9.8335 7.73047 9.81299 7.91406 9.77197 8.08789C9.73291 8.25977 9.67627 8.41699 9.60205 8.55957C9.52979 8.69824 9.44189 8.82422 9.33838 8.9375C9.23682 9.05078 9.12354 9.14746 8.99854 9.22754C8.85791 9.31543 8.70166 9.38281 8.52979 9.42969C8.35986 9.47656 8.17725 9.5 7.98193 9.5H6.90381ZM7.61572 5.80859V8.92871H7.98193C8.10693 8.92871 8.22119 8.91406 8.32471 8.88477C8.43018 8.85352 8.5249 8.80957 8.60889 8.75293C8.69482 8.69434 8.771 8.62109 8.8374 8.5332C8.90576 8.44336 8.96143 8.34082 9.00439 8.22559C9.0415 8.12793 9.06982 8.02148 9.08936 7.90625C9.10889 7.79102 9.11865 7.66797 9.11865 7.53711V7.19727C9.11865 7.06836 9.10889 6.94629 9.08936 6.83105C9.06982 6.71582 9.0415 6.60938 9.00439 6.51172C8.95752 6.39258 8.89502 6.28516 8.81689 6.18945C8.73877 6.0918 8.646 6.0127 8.53857 5.95215C8.46045 5.90723 8.37256 5.87305 8.2749 5.84961C8.17725 5.82422 8.07178 5.81055 7.9585 5.80859H7.61572Z" fill="white"/>
<g clip-path="url(#clip0_101_9348)">
<path d="M2.83268 7.16669L1.44425 8.17344C1.07327 8.44244 1.07327 8.5576 1.44425 8.8266L2.83268 9.83335" stroke="#4285F4" stroke-width="1.07812" stroke-linecap="round" stroke-linejoin="round"/>
</g>
<g clip-path="url(#clip1_101_9348)">
<path d="M13.166 7.16669L14.5544 8.17344C14.9254 8.44244 14.9254 8.5576 14.5544 8.8266L13.166 9.83335" stroke="#F9AB00" stroke-width="1.07812" stroke-linecap="round" stroke-linejoin="round"/>
</g>
<g clip-path="url(#clip2_101_9348)">
<path d="M9.33252 2.83329L8.32577 1.44486C8.05676 1.07388 7.94161 1.07388 7.67261 1.44486L6.66585 2.83329" stroke="#EA4335" stroke-width="1.07812" stroke-linecap="round" stroke-linejoin="round"/>
</g>
<g clip-path="url(#clip3_101_9348)">
<path d="M9.33252 13.1666L8.32577 14.5551C8.05676 14.926 7.94161 14.926 7.67261 14.5551L6.66585 13.1666" stroke="#34A853" stroke-width="1.07812" stroke-linecap="round" stroke-linejoin="round"/>
</g>
<defs>
<clipPath id="clip0_101_9348">
<rect width="4" height="4" fill="white" transform="translate(-0.000488281 6.5)"/>
</clipPath>
<clipPath id="clip1_101_9348">
<rect width="4" height="4" fill="white" transform="translate(11.9995 6.5)"/>
</clipPath>
<clipPath id="clip2_101_9348">
<rect width="4" height="4" fill="white" transform="matrix(0 1 -1 0 9.99951 0)"/>
</clipPath>
<clipPath id="clip3_101_9348">
<rect width="4" height="4" fill="white" transform="matrix(0 1 -1 0 9.99951 12)"/>
</clipPath>
</defs>
</svg>
