<svg width="24" height="24" viewBox="0 0 24 24" fill="none" xmlns="http://www.w3.org/2000/svg">
<path d="M10.2887 14.1866V7.91328H11.8398C12.1098 7.91328 12.364 7.94488 12.6024 8.00807C12.8408 8.06839 13.0577 8.15313 13.253 8.26228C13.4656 8.37431 13.6537 8.51506 13.8174 8.68453C13.984 8.854 14.1234 9.04358 14.2354 9.25327C14.3503 9.47157 14.4393 9.71142 14.5025 9.97281C14.5657 10.2342 14.5973 10.5128 14.5973 10.8087V11.2999C14.5973 11.5842 14.5671 11.8542 14.5068 12.1099C14.4494 12.3627 14.3661 12.5939 14.2569 12.8036C14.1506 13.0075 14.0214 13.1928 13.8692 13.3594C13.7198 13.526 13.5532 13.6682 13.3694 13.7859C13.1625 13.9152 12.9327 14.0143 12.68 14.0832C12.4301 14.1522 12.1615 14.1866 11.8743 14.1866H10.2887ZM11.3357 8.75777V13.3465H11.8743C12.0581 13.3465 12.2261 13.3249 12.3784 13.2818C12.5335 13.2359 12.6728 13.1712 12.7963 13.0879C12.9227 13.0018 13.0347 12.8941 13.1324 12.7648C13.2329 12.6327 13.3148 12.4819 13.378 12.3124C13.4325 12.1688 13.4742 12.0122 13.5029 11.8428C13.5316 11.6733 13.546 11.4923 13.546 11.2999V10.8001C13.546 10.6105 13.5316 10.431 13.5029 10.2615C13.4742 10.092 13.4325 9.93547 13.378 9.79185C13.309 9.61663 13.2171 9.45864 13.1022 9.3179C12.9873 9.17428 12.8509 9.05794 12.6929 8.9689C12.578 8.90283 12.4487 8.85256 12.3051 8.8181C12.1615 8.78075 12.0064 8.76065 11.8398 8.75777H11.3357Z" fill="white"/>
<g clip-path="url(#clip0_2001_2707)">
<path d="M4.30147 10.6378L2.25954 12.1184C1.71394 12.514 1.71394 12.6833 2.25954 13.079L4.30147 14.5596" stroke="#4285F4" stroke-width="1.10301" stroke-linecap="round" stroke-linejoin="round"/>
</g>
<g clip-path="url(#clip1_2001_2707)">
<path d="M19.4985 10.6378L21.5405 12.1184C22.0861 12.514 22.0861 12.6833 21.5405 13.079L19.4985 14.5596" stroke="#F9AB00" stroke-width="1.10301" stroke-linecap="round" stroke-linejoin="round"/>
</g>
<g clip-path="url(#clip2_2001_2707)">
<path d="M13.8611 4.26479L12.3805 2.22286C11.9849 1.67726 11.8155 1.67726 11.4199 2.22286L9.93928 4.26479" stroke="#EA4335" stroke-width="1.10301" stroke-linecap="round" stroke-linejoin="round"/>
</g>
<g clip-path="url(#clip3_2001_2707)">
<path d="M13.8611 19.4618L12.3805 21.5037C11.9849 22.0493 11.8155 22.0493 11.4199 21.5037L9.93928 19.4618" stroke="#34A853" stroke-width="1.10301" stroke-linecap="round" stroke-linejoin="round"/>
</g>
<defs>
<clipPath id="clip0_2001_2707">
<rect width="5.88271" height="5.88271" fill="white" transform="translate(0.134521 9.65729)"/>
</clipPath>
<clipPath id="clip1_2001_2707">
<rect width="5.88271" height="5.88271" fill="white" transform="translate(17.7827 9.65729)"/>
</clipPath>
<clipPath id="clip2_2001_2707">
<rect width="5.88271" height="5.88271" fill="white" transform="matrix(0 1 -1 0 14.8413 0.0979004)"/>
</clipPath>
<clipPath id="clip3_2001_2707">
<rect width="5.88271" height="5.88271" fill="white" transform="matrix(0 1 -1 0 14.8413 17.746)"/>
</clipPath>
</defs>
</svg>
