<svg width="33" height="32" viewBox="0 0 33 32" fill="none" xmlns="http://www.w3.org/2000/svg">
<path d="M14.3086 20V11.4688H16.418C16.7852 11.4688 17.1309 11.5117 17.4551 11.5977C17.7793 11.6797 18.0742 11.7949 18.3398 11.9434C18.6289 12.0957 18.8848 12.2871 19.1074 12.5176C19.334 12.748 19.5234 13.0059 19.6758 13.291C19.832 13.5879 19.9531 13.9141 20.0391 14.2695C20.125 14.625 20.168 15.0039 20.168 15.4062V16.0742C20.168 16.4609 20.127 16.8281 20.0449 17.1758C19.9668 17.5195 19.8535 17.834 19.7051 18.1191C19.5605 18.3965 19.3848 18.6484 19.1777 18.875C18.9746 19.1016 18.748 19.2949 18.498 19.4551C18.2168 19.6309 17.9043 19.7656 17.5605 19.8594C17.2207 19.9531 16.8555 20 16.4648 20H14.3086ZM15.7324 12.6172V18.8574H16.4648C16.7148 18.8574 16.9434 18.8281 17.1504 18.7695C17.3613 18.707 17.5508 18.6191 17.7188 18.5059C17.8906 18.3887 18.043 18.2422 18.1758 18.0664C18.3125 17.8867 18.4238 17.6816 18.5098 17.4512C18.584 17.2559 18.6406 17.043 18.6797 16.8125C18.7188 16.582 18.7383 16.3359 18.7383 16.0742V15.3945C18.7383 15.1367 18.7188 14.8926 18.6797 14.6621C18.6406 14.4316 18.584 14.2188 18.5098 14.0234C18.416 13.7852 18.291 13.5703 18.1348 13.3789C17.9785 13.1836 17.793 13.0254 17.5781 12.9043C17.4219 12.8145 17.2461 12.7461 17.0508 12.6992C16.8555 12.6484 16.6445 12.6211 16.418 12.6172H15.7324Z" fill="#EA4335"/>
<path d="M6.16683 14.3333L3.38997 16.3468C2.648 16.8848 2.648 17.1151 3.38997 17.6531L6.16683 19.6666" stroke="#EA4335" stroke-width="1.5" stroke-linecap="round" stroke-linejoin="round"/>
<path d="M26.8335 14.3333L29.6104 16.3468C30.3523 16.8848 30.3523 17.1151 29.6104 17.6531L26.8335 19.6666" stroke="#EA4335" stroke-width="1.5" stroke-linecap="round" stroke-linejoin="round"/>
<path d="M19.1665 5.66665L17.153 2.88979C16.615 2.14782 16.3847 2.14782 15.8467 2.88979L13.8332 5.66665" stroke="#EA4335" stroke-width="1.5" stroke-linecap="round" stroke-linejoin="round"/>
<path d="M19.1665 26.3333L17.153 29.1102C16.615 29.8522 16.3847 29.8522 15.8467 29.1102L13.8332 26.3333" stroke="#EA4335" stroke-width="1.5" stroke-linecap="round" stroke-linejoin="round"/>
</svg>
