<svg width="32" height="16" viewBox="0 0 32 16" fill="none" xmlns="http://www.w3.org/2000/svg">
<path d="M23.0397 8.71784C24.7233 7.72763 26.4025 6.72936 28.0918 5.74939C29.6953 4.81909 31.582 5.67707 31.9455 7.4875C32.1558 8.5348 31.6992 9.66619 30.7758 10.2172C27.7486 12.0237 24.717 13.823 21.6702 15.5948C20.7272 16.1431 19.7558 16.0423 18.8965 15.3703C18.0235 14.688 17.7483 13.747 17.9531 12.6517C18.1868 11.8179 18.7218 11.2604 19.4515 10.8434C20.6578 10.154 21.8446 9.42824 23.0397 8.71784Z" fill="#FABC05"/>
<path d="M24.2756 7.99778C22.5963 6.99989 20.9126 6.00981 19.2391 5.00181C17.6505 4.04489 17.433 1.94287 18.7823 0.715095C19.5628 0.00507911 20.7479 -0.155817 21.6756 0.387543C24.7171 2.16892 27.7546 3.95785 30.7764 5.77378C31.7116 6.33583 32.1119 7.24783 31.9735 8.34594C31.8329 9.46108 31.1746 10.1756 30.146 10.5418C29.3239 10.7514 28.585 10.5556 27.8675 10.1171C26.6811 9.39196 25.474 8.70229 24.2756 7.99778Z" fill="#109D58"/>
<path d="M8.96898 7.29174C7.89135 7.91869 6.8131 8.54448 5.7366 9.17334C5.10685 9.54121 4.4841 9.92163 3.8511 10.2834C2.57573 11.0123 1.06048 10.5851 0.337351 9.30109C-0.352774 8.07587 0.0438513 6.48739 1.2721 5.75318C4.27523 3.95824 7.2861 2.17635 10.3079 0.414431C11.2346 -0.125985 12.1961 -0.0580173 13.0531 0.587999C13.9576 1.26985 14.2537 2.22934 14.0506 3.35421C13.9246 3.62633 13.8494 3.94544 13.6607 4.15984C13.3539 4.50864 13.0051 4.84259 12.6169 5.08784C11.4154 5.84649 10.187 6.56048 8.96898 7.29174Z" fill="#E94436"/>
<path d="M7.73375 7.99499C8.80287 8.63704 9.87124 9.28049 10.9414 9.92075C11.5672 10.2953 12.2004 10.6574 12.8227 11.0377C14.077 11.8044 14.4734 13.3616 13.749 14.6448C13.0577 15.8695 11.5161 16.3122 10.281 15.5899C7.26137 13.8241 4.24899 12.0452 1.24799 10.2464C0.32762 9.6947 -0.0956303 8.80805 0.0222447 7.72504C0.14662 6.58187 0.809995 5.8396 1.86287 5.45726C2.15599 5.43307 2.46349 5.34014 2.73924 5.4003C3.18762 5.49809 3.64449 5.6403 4.04599 5.862C5.28837 6.54808 6.50637 7.28049 7.73375 7.99499Z" fill="#4385F3"/>
</svg>
