<svg width="101" height="66" viewBox="0 0 101 66" fill="none" xmlns="http://www.w3.org/2000/svg">
<mask id="mask0_31_2729" style="mask-type:luminance" maskUnits="userSpaceOnUse" x="28" y="11" width="45" height="44">
<path d="M50.5001 54.6666C62.773 54.6666 72.7223 44.9661 72.7223 32.9999C72.7223 21.0337 62.773 11.3333 50.5001 11.3333C38.2271 11.3333 28.2778 21.0337 28.2778 32.9999C28.2778 44.9661 38.2271 54.6666 50.5001 54.6666Z" fill="white"/>
</mask>
<g mask="url(#mask0_31_2729)">
<path d="M31.8057 11.3333V37.9242H41.7526L50.5001 23.1514H72.7223V11.3333H31.8057Z" fill="#DB4437"/>
<path d="M31.8057 11.3333V37.9242H41.7526L50.5001 23.1514H72.7223V11.3333H31.8057Z" fill="url(#paint0_linear_31_2729)"/>
</g>
<mask id="mask1_31_2729" style="mask-type:luminance" maskUnits="userSpaceOnUse" x="28" y="11" width="45" height="44">
<path d="M50.5001 54.6666C62.773 54.6666 72.7223 44.9661 72.7223 32.9999C72.7223 21.0337 62.773 11.3333 50.5001 11.3333C38.2271 11.3333 28.2778 21.0337 28.2778 32.9999C28.2778 44.9661 38.2271 54.6666 50.5001 54.6666Z" fill="white"/>
</mask>
<g mask="url(#mask1_31_2729)">
<path d="M41.9925 37.838L31.9344 21.0193L31.788 21.2655L41.7728 37.9587L41.9925 37.838Z" fill="#3E2723" fill-opacity="0.15"/>
</g>
<mask id="mask2_31_2729" style="mask-type:luminance" maskUnits="userSpaceOnUse" x="28" y="11" width="45" height="44">
<path d="M50.5001 54.6666C62.773 54.6666 72.7223 44.9661 72.7223 32.9999C72.7223 21.0337 62.773 11.3333 50.5001 11.3333C38.2271 11.3333 28.2778 21.0337 28.2778 32.9999C28.2778 44.9661 38.2271 54.6666 50.5001 54.6666Z" fill="white"/>
</mask>
<g mask="url(#mask2_31_2729)">
<path d="M28.2778 54.6666H49.4319L59.2501 45.0939V37.9242H41.7526L28.2778 15.3909V54.6666Z" fill="#0F9D58"/>
<path d="M28.2778 54.6666H49.4319L59.2501 45.0939V37.9242H41.7526L28.2778 15.3909V54.6666Z" fill="url(#paint1_linear_31_2729)"/>
</g>
<mask id="mask3_31_2729" style="mask-type:luminance" maskUnits="userSpaceOnUse" x="28" y="11" width="45" height="44">
<path d="M50.5001 54.6666C62.773 54.6666 72.7223 44.9661 72.7223 32.9999C72.7223 21.0337 62.773 11.3333 50.5001 11.3333C38.2271 11.3333 28.2778 21.0337 28.2778 32.9999C28.2778 44.9661 38.2271 54.6666 50.5001 54.6666Z" fill="white"/>
</mask>
<g mask="url(#mask3_31_2729)">
<path d="M59.0455 38.2517L58.8359 38.1335L49.1415 54.6667H49.4319L59.0531 38.2591L59.0455 38.2517Z" fill="#263238" fill-opacity="0.15"/>
</g>
<mask id="mask4_31_2729" style="mask-type:luminance" maskUnits="userSpaceOnUse" x="28" y="11" width="45" height="44">
<path d="M50.5001 54.6666C62.773 54.6666 72.7223 44.9661 72.7223 32.9999C72.7223 21.0337 62.773 11.3333 50.5001 11.3333C38.2271 11.3333 28.2778 21.0337 28.2778 32.9999C28.2778 44.9661 38.2271 54.6666 50.5001 54.6666Z" fill="white"/>
</mask>
<g mask="url(#mask4_31_2729)">
<mask id="mask5_31_2729" style="mask-type:luminance" maskUnits="userSpaceOnUse" x="28" y="15" width="32" height="40">
<path d="M28.2778 54.6666H49.4319L59.2501 45.0939V37.9242H41.7526L28.2778 15.3909V54.6666Z" fill="white"/>
</mask>
<g mask="url(#mask5_31_2729)">
<path d="M50.5001 23.1514L59.2501 37.9241L49.4319 54.6665H72.7223V23.1514H50.5001Z" fill="#FFCD40"/>
<path d="M50.5001 23.1514L59.2501 37.9241L49.4319 54.6665H72.7223V23.1514H50.5001Z" fill="url(#paint2_linear_31_2729)"/>
</g>
</g>
<mask id="mask6_31_2729" style="mask-type:luminance" maskUnits="userSpaceOnUse" x="28" y="11" width="45" height="44">
<path d="M50.5001 54.6666C62.773 54.6666 72.7223 44.9661 72.7223 32.9999C72.7223 21.0337 62.773 11.3333 50.5001 11.3333C38.2271 11.3333 28.2778 21.0337 28.2778 32.9999C28.2778 44.9661 38.2271 54.6666 50.5001 54.6666Z" fill="white"/>
</mask>
<g mask="url(#mask6_31_2729)">
<path d="M50.5001 23.1514L59.2501 37.9241L49.4319 54.6665H72.7223V23.1514H50.5001Z" fill="#FFCD40"/>
<path d="M50.5001 23.1514L59.2501 37.9241L49.4319 54.6665H72.7223V23.1514H50.5001Z" fill="url(#paint3_linear_31_2729)"/>
</g>
<mask id="mask7_31_2729" style="mask-type:luminance" maskUnits="userSpaceOnUse" x="28" y="11" width="45" height="44">
<path d="M50.5001 54.6666C62.773 54.6666 72.7223 44.9661 72.7223 32.9999C72.7223 21.0337 62.773 11.3333 50.5001 11.3333C38.2271 11.3333 28.2778 21.0337 28.2778 32.9999C28.2778 44.9661 38.2271 54.6666 50.5001 54.6666Z" fill="white"/>
</mask>
<g mask="url(#mask7_31_2729)">
<mask id="mask8_31_2729" style="mask-type:luminance" maskUnits="userSpaceOnUse" x="49" y="23" width="24" height="32">
<path d="M50.5001 23.1514L59.2501 37.9241L49.4319 54.6665H72.7223V23.1514H50.5001Z" fill="white"/>
</mask>
<g mask="url(#mask8_31_2729)">
<path d="M31.8057 11.3333V37.9242H41.7526L50.5001 23.1514H72.7223V11.3333H31.8057Z" fill="#DB4437"/>
<path d="M31.8057 11.3333V37.9242H41.7526L50.5001 23.1514H72.7223V11.3333H31.8057Z" fill="url(#paint4_linear_31_2729)"/>
</g>
</g>
<mask id="mask9_31_2729" style="mask-type:luminance" maskUnits="userSpaceOnUse" x="28" y="11" width="45" height="44">
<path d="M50.5001 54.6666C62.773 54.6666 72.7223 44.9661 72.7223 32.9999C72.7223 21.0337 62.773 11.3333 50.5001 11.3333C38.2271 11.3333 28.2778 21.0337 28.2778 32.9999C28.2778 44.9661 38.2271 54.6666 50.5001 54.6666Z" fill="white"/>
</mask>
<g mask="url(#mask9_31_2729)">
<path d="M50.5 23.1514V28.3095L70.298 23.1514H50.5Z" fill="url(#paint5_radial_31_2729)"/>
</g>
<mask id="mask10_31_2729" style="mask-type:luminance" maskUnits="userSpaceOnUse" x="28" y="11" width="45" height="44">
<path d="M50.5001 54.6666C62.773 54.6666 72.7223 44.9661 72.7223 32.9999C72.7223 21.0337 62.773 11.3333 50.5001 11.3333C38.2271 11.3333 28.2778 21.0337 28.2778 32.9999C28.2778 44.9661 38.2271 54.6666 50.5001 54.6666Z" fill="white"/>
</mask>
<g mask="url(#mask10_31_2729)">
<mask id="mask11_31_2729" style="mask-type:luminance" maskUnits="userSpaceOnUse" x="31" y="11" width="42" height="27">
<path d="M31.8057 11.3333V21.2654L41.7526 37.9242L50.5001 23.1514H72.7223V11.3333H31.8057Z" fill="white"/>
</mask>
<g mask="url(#mask11_31_2729)">
<path d="M28.2778 54.6666H49.4319L59.2501 45.0939V37.9242H41.7526L28.2778 15.3909V54.6666Z" fill="#0F9D58"/>
<path d="M28.2778 54.6666H49.4319L59.2501 45.0939V37.9242H41.7526L28.2778 15.3909V54.6666Z" fill="url(#paint6_linear_31_2729)"/>
</g>
</g>
<mask id="mask12_31_2729" style="mask-type:luminance" maskUnits="userSpaceOnUse" x="28" y="11" width="45" height="44">
<path d="M50.5001 54.6666C62.773 54.6666 72.7223 44.9661 72.7223 32.9999C72.7223 21.0337 62.773 11.3333 50.5001 11.3333C38.2271 11.3333 28.2778 21.0337 28.2778 32.9999C28.2778 44.9661 38.2271 54.6666 50.5001 54.6666Z" fill="white"/>
</mask>
<g mask="url(#mask12_31_2729)">
<path d="M31.8057 21.2925L46.2627 35.3857L41.7526 37.9241L31.8057 21.2925Z" fill="url(#paint7_radial_31_2729)"/>
</g>
<mask id="mask13_31_2729" style="mask-type:luminance" maskUnits="userSpaceOnUse" x="28" y="11" width="45" height="44">
<path d="M50.5001 54.6666C62.773 54.6666 72.7223 44.9661 72.7223 32.9999C72.7223 21.0337 62.773 11.3333 50.5001 11.3333C38.2271 11.3333 28.2778 21.0337 28.2778 32.9999C28.2778 44.9661 38.2271 54.6666 50.5001 54.6666Z" fill="white"/>
</mask>
<g mask="url(#mask13_31_2729)">
<path d="M49.447 54.6395L54.74 35.3857L59.25 37.9242L49.447 54.6395Z" fill="url(#paint8_radial_31_2729)"/>
</g>
<mask id="mask14_31_2729" style="mask-type:luminance" maskUnits="userSpaceOnUse" x="28" y="11" width="45" height="44">
<path d="M50.5001 54.6666C62.773 54.6666 72.7223 44.9661 72.7223 32.9999C72.7223 21.0337 62.773 11.3333 50.5001 11.3333C38.2271 11.3333 28.2778 21.0337 28.2778 32.9999C28.2778 44.9661 38.2271 54.6666 50.5001 54.6666Z" fill="white"/>
</mask>
<g mask="url(#mask14_31_2729)">
<path d="M50.5001 42.8483C56.0787 42.8483 60.6011 38.439 60.6011 32.9999C60.6011 27.5607 56.0787 23.1514 50.5001 23.1514C44.9214 23.1514 40.399 27.5607 40.399 32.9999C40.399 38.439 44.9214 42.8483 50.5001 42.8483Z" fill="#F1F1F1"/>
<path d="M50.5001 40.8787C54.963 40.8787 58.5809 37.3512 58.5809 32.9999C58.5809 28.6485 54.963 25.1211 50.5001 25.1211C46.0372 25.1211 42.4193 28.6485 42.4193 32.9999C42.4193 37.3512 46.0372 40.8787 50.5001 40.8787Z" fill="#4285F4"/>
</g>
<mask id="mask15_31_2729" style="mask-type:luminance" maskUnits="userSpaceOnUse" x="28" y="11" width="45" height="44">
<path d="M50.5001 54.6666C62.773 54.6666 72.7223 44.9661 72.7223 32.9999C72.7223 21.0337 62.773 11.3333 50.5001 11.3333C38.2271 11.3333 28.2778 21.0337 28.2778 32.9999C28.2778 44.9661 38.2271 54.6666 50.5001 54.6666Z" fill="white"/>
</mask>
<g mask="url(#mask15_31_2729)">
<path d="M50.5001 22.9053C44.9218 22.9053 40.399 27.3149 40.399 32.7538V33C40.399 27.5611 44.9218 23.1515 50.5001 23.1515H72.7223V22.9053H50.5001Z" fill="#3E2723" fill-opacity="0.2"/>
<path d="M59.2374 37.9242C57.49 40.864 54.2349 42.8484 50.5001 42.8484C46.7627 42.8484 43.5076 40.864 41.7602 37.9242H41.7501L28.2778 15.3909V15.6371L41.7526 38.1704H41.7627C43.5102 41.1102 46.7652 43.0947 50.5026 43.0947C54.2374 43.0947 57.4925 41.1126 59.24 38.1704H59.2526V37.9242H59.2374Z" fill="white" fill-opacity="0.1"/>
<path opacity="0.1" d="M50.7526 23.1514C50.7097 23.1514 50.6693 23.1563 50.6263 23.1588C56.1465 23.2252 60.6011 27.6029 60.6011 32.9999C60.6011 38.3968 56.1465 42.7745 50.6263 42.8409C50.6693 42.8409 50.7097 42.8483 50.7526 42.8483C56.3309 42.8483 60.8536 38.4387 60.8536 32.9999C60.8536 27.561 56.3309 23.1514 50.7526 23.1514Z" fill="#3E2723"/>
<path d="M59.3385 38.2517C60.197 36.804 60.6945 35.1297 60.6945 33.3373C60.6945 32.2983 60.5278 31.2987 60.2223 30.3606C60.4622 31.2026 60.6011 32.0865 60.6011 33.0025C60.6011 34.7949 60.1036 36.4691 59.245 37.9168L59.2501 37.9267L49.4319 54.6691H49.7248L59.3435 38.2615L59.3385 38.2517Z" fill="white" fill-opacity="0.2"/>
</g>
<mask id="mask16_31_2729" style="mask-type:luminance" maskUnits="userSpaceOnUse" x="28" y="11" width="45" height="44">
<path d="M50.5001 54.6666C62.773 54.6666 72.7223 44.9661 72.7223 32.9999C72.7223 21.0337 62.773 11.3333 50.5001 11.3333C38.2271 11.3333 28.2778 21.0337 28.2778 32.9999C28.2778 44.9661 38.2271 54.6666 50.5001 54.6666Z" fill="white"/>
</mask>
<g mask="url(#mask16_31_2729)">
<path d="M50.5001 11.5795C62.7299 11.5795 72.6516 21.2137 72.7197 33.123C72.7197 33.0812 72.7223 33.0418 72.7223 32.9999C72.7223 21.034 62.7728 11.3333 50.5001 11.3333C38.2273 11.3333 28.2778 21.034 28.2778 32.9999C28.2778 33.0418 28.2804 33.0812 28.2804 33.123C28.3485 21.2137 38.2703 11.5795 50.5001 11.5795Z" fill="white" fill-opacity="0.2"/>
<path d="M50.5001 54.4203C62.7299 54.4203 72.6516 44.786 72.7197 32.8767C72.7197 32.9186 72.7223 32.958 72.7223 32.9998C72.7223 44.9657 62.7728 54.6665 50.5001 54.6665C38.2273 54.6665 28.2778 44.9657 28.2778 32.9998C28.2778 32.958 28.2804 32.9186 28.2804 32.8767C28.3485 44.786 38.2703 54.4203 50.5001 54.4203Z" fill="#3E2723" fill-opacity="0.15"/>
</g>
<path d="M50.5001 54.6666C62.773 54.6666 72.7223 44.9661 72.7223 32.9999C72.7223 21.0337 62.773 11.3333 50.5001 11.3333C38.2271 11.3333 28.2778 21.0337 28.2778 32.9999C28.2778 44.9661 38.2271 54.6666 50.5001 54.6666Z" fill="url(#paint9_radial_31_2729)"/>
<defs>
<linearGradient id="paint0_linear_31_2729" x1="33.666" y1="27.8346" x2="46.7507" y2="19.9955" gradientUnits="userSpaceOnUse">
<stop stop-color="#A52714" stop-opacity="0.6"/>
<stop offset="0.66" stop-color="#A52714" stop-opacity="0"/>
</linearGradient>
<linearGradient id="paint1_linear_31_2729" x1="54.2551" y1="49.8655" x2="39.7177" y2="41.1313" gradientUnits="userSpaceOnUse">
<stop stop-color="#055524" stop-opacity="0.4"/>
<stop offset="0.33" stop-color="#055524" stop-opacity="0"/>
</linearGradient>
<linearGradient id="paint2_linear_31_2729" x1="57.0304" y1="21.6258" x2="60.5655" y2="37.5025" gradientUnits="userSpaceOnUse">
<stop stop-color="#EA6100" stop-opacity="0.3"/>
<stop offset="0.66" stop-color="#EA6100" stop-opacity="0"/>
</linearGradient>
<linearGradient id="paint3_linear_31_2729" x1="57.0304" y1="21.6258" x2="60.5655" y2="37.5025" gradientUnits="userSpaceOnUse">
<stop stop-color="#EA6100" stop-opacity="0.3"/>
<stop offset="0.66" stop-color="#EA6100" stop-opacity="0"/>
</linearGradient>
<linearGradient id="paint4_linear_31_2729" x1="33.666" y1="27.8346" x2="46.7507" y2="19.9955" gradientUnits="userSpaceOnUse">
<stop stop-color="#A52714" stop-opacity="0.6"/>
<stop offset="0.66" stop-color="#A52714" stop-opacity="0"/>
</linearGradient>
<radialGradient id="paint5_radial_31_2729" cx="0" cy="0" r="1" gradientUnits="userSpaceOnUse" gradientTransform="translate(49.5354 23.1386) scale(21.2318 20.701)">
<stop stop-color="#3E2723" stop-opacity="0.2"/>
<stop offset="1" stop-color="#3E2723" stop-opacity="0"/>
</radialGradient>
<linearGradient id="paint6_linear_31_2729" x1="54.2551" y1="49.8655" x2="39.7177" y2="41.1313" gradientUnits="userSpaceOnUse">
<stop stop-color="#055524" stop-opacity="0.4"/>
<stop offset="0.33" stop-color="#055524" stop-opacity="0"/>
</linearGradient>
<radialGradient id="paint7_radial_31_2729" cx="0" cy="0" r="1" gradientUnits="userSpaceOnUse" gradientTransform="translate(31.7829 21.3097) scale(19.7081 19.2154)">
<stop stop-color="#3E2723" stop-opacity="0.2"/>
<stop offset="1" stop-color="#3E2723" stop-opacity="0"/>
</radialGradient>
<radialGradient id="paint8_radial_31_2729" cx="0" cy="0" r="1" gradientUnits="userSpaceOnUse" gradientTransform="translate(50.4596 33.0339) scale(22.1894 21.6347)">
<stop stop-color="#263238" stop-opacity="0.2"/>
<stop offset="1" stop-color="#263238" stop-opacity="0"/>
</radialGradient>
<radialGradient id="paint9_radial_31_2729" cx="0" cy="0" r="1" gradientUnits="userSpaceOnUse" gradientTransform="translate(34.9157 17.2458) scale(44.6338 43.518)">
<stop stop-color="white" stop-opacity="0.1"/>
<stop offset="1" stop-color="white" stop-opacity="0"/>
</radialGradient>
</defs>
</svg>
